HIERARCHY
ROOT Hips
{
    OFFSET 0.000000 0.000000 0.000000
    CHANNELS 6 Xposition Yposition Zposition Zrotation Xrotation Yrotation
    JOINT Spine
    {
        OFFSET -0.000000 14.517291 0.000000
        CHANNELS 3 Zrotation Xrotation Yrotation
        JOINT Spine1
        {
            OFFSET -0.000000 37.558300 0.000000
            CHANNELS 3 Zrotation Xrotation Yrotation
            JOINT Neck
            {
                OFFSET -0.000000 37.404057 3.400369
                CHANNELS 3 Zrotation Xrotation Yrotation
                JOINT Head
                {
                    OFFSET -0.000000 24.785618 -3.540803
                    CHANNELS 3 Zrotation Xrotation Yrotation
                    End Site
                    {
                        OFFSET -0.000000 35.408028 0.000000
                    }
                }
            }
            JOINT LeftShoulder
            {
                OFFSET 6.992933 33.973492 -0.192664
                CHANNELS 3 Zrotation Xrotation Yrotation
                JOINT LeftArm
                {
                    OFFSET 21.527611 0.000000 0.000000
                    CHANNELS 3 Zrotation Xrotation Yrotation
                    JOINT LeftForeArm
                    {
                        OFFSET 56.353916 0.000000 0.000000
                        CHANNELS 3 Zrotation Xrotation Yrotation
                        JOINT LeftHand
                        {
                            OFFSET 47.774071 0.000000 0.000000
                            CHANNELS 3 Zrotation Xrotation Yrotation
                            End Site
                            {
                                OFFSET 26.556021 0.000000 0.000000
                            }
                        }
                    }
                }
            }
            JOINT RightShoulder
            {
                OFFSET -7.065357 33.973492 -0.192664
                CHANNELS 3 Zrotation Xrotation Yrotation
                JOINT RightArm
                {
                    OFFSET -21.527611 0.000000 0.000000
                    CHANNELS 3 Zrotation Xrotation Yrotation
                    JOINT RightForeArm
                    {
                        OFFSET -56.353916 0.000000 0.000000
                        CHANNELS 3 Zrotation Xrotation Yrotation
                        JOINT RightHand
                        {
                            OFFSET -47.774071 0.000000 0.000000
                            CHANNELS 3 Zrotation Xrotation Yrotation
                            End Site
                            {
                                OFFSET -26.556021 0.000000 0.000000
                            }
                        }
                    }
                }
            }
        }
    }
    JOINT LeftUpLeg
    {
        OFFSET 17.704014 0.000000 0.000000
        CHANNELS 3 Zrotation Xrotation Yrotation
        JOINT LeftLeg
        {
            OFFSET -0.000000 -81.181816 0.000000
            CHANNELS 3 Zrotation Xrotation Yrotation
            JOINT LeftFoot
            {
                OFFSET -0.000000 -62.821102 0.000000
                CHANNELS 3 Zrotation Xrotation Yrotation
                JOINT LeftToeBase
                {
                    OFFSET -0.000000 -11.507608 26.556021
                    CHANNELS 3 Zrotation Xrotation Yrotation
                    End Site
                    {
                        OFFSET -0.000000 0.000000 7.081605
                    }
                }
            }
        }
    }
    JOINT RightUpLeg
    {
        OFFSET -17.704014 0.000000 0.000000
        CHANNELS 3 Zrotation Xrotation Yrotation
        JOINT RightLeg
        {
            OFFSET -0.000000 -81.181816 0.000000
            CHANNELS 3 Zrotation Xrotation Yrotation
            JOINT RightFoot
            {
                OFFSET -0.000000 -62.821102 0.000000
                CHANNELS 3 Zrotation Xrotation Yrotation
                JOINT RightToeBase
                {
                    OFFSET -0.000000 -11.507608 26.556021
                    CHANNELS 3 Zrotation Xrotation Yrotation
                    End Site
                    {
                        OFFSET -0.000000 0.000000 7.081605
                    }
                }
            }
        }
    }
}
MOTION
Frames:    10
Frame Time:    0.008333
-2.183348    153.303864    -58.131241    -0.585468    -14.973285    29.053423    -3.462595    0.422341    0.705676    -1.103980    -0.376236    0.225263    2.368654    2.697434    -13.829699    11.846724    7.515522    -13.816528    2.185614    9.074678    -13.408846    -33.842655    21.438051    -51.456844    -1.092048    -29.802507    -115.761665    -7.897019    -30.710218    -9.949255    1.636341    12.330525    -5.549877    31.489668    18.464252    45.969254    -0.866346    12.746739    34.193298    -19.820225    6.389395    37.053944    22.699135    12.474771    -1.364434    -12.651580    35.375298    -20.019835    7.600336    -33.144848    46.221478    0.000000    0.000000    0.000000    -10.502716    -9.216941    -5.376027    8.984023    20.895742    -8.625206    5.646399    5.483924    -13.762327    0.000000    0.000000    0.000000    
-2.313396    153.370880    -58.095985    -0.609796    -14.708111    29.037477    -3.395453    0.496886    0.670564    -1.125580    -0.476165    0.211794    2.483987    2.720367    -13.811838    11.539483    7.312800    -13.813861    2.273871    8.952792    -13.432009    -34.021011    21.467072    -51.337818    -1.158939    -29.678154    -115.803665    -7.857008    -30.681316    -9.977102    1.630351    12.353327    -5.577972    31.486629    18.349064    46.083118    -0.793277    12.820816    34.162136    -19.869247    6.431700    37.021523    22.598885    12.304647    -1.270612    -12.601295    35.183273    -19.963764    7.372975    -33.033062    46.105495    0.000000    0.000000    0.000000    -10.557830    -9.478094    -5.350492    8.991493    20.906406    -8.654210    5.606986    5.497630    -13.779896    0.000000    0.000000    0.000000    
-2.448937    153.434174    -58.057934    -0.655339    -14.445162    29.023563    -3.314551    0.555936    0.635896    -1.143188    -0.581619    0.198919    2.403086    2.631771    -13.753671    11.604857    7.330590    -13.741591    2.268610    9.002028    -13.425739    -33.890270    21.497168    -51.410809    -1.126299    -29.825186    -115.776756    -7.888659    -30.777966    -9.993876    1.613837    12.311327    -5.523596    31.492619    18.378775    46.050293    -0.892563    12.753070    34.163738    -19.838013    6.416030    36.958187    22.526039    12.112604    -1.158515    -12.540362    35.020958    -19.983940    7.187653    -32.917984    46.038223    0.000000    0.000000    0.000000    -10.592508    -9.746655    -5.318493    9.005280    20.916052    -8.683746    5.575423    5.509400    -13.833158    0.000000    0.000000    0.000000    
-2.600106    153.502197    -58.013187    -0.719351    -14.164725    29.018353    -3.219342    0.608570    0.563310    -1.188593    -0.705697    0.173008    2.375016    2.663091    -13.706338    11.605042    7.161512    -13.670462    2.259329    9.004617    -13.365587    -33.813099    21.512823    -51.435516    -1.069604    -29.860649    -115.765793    -7.859282    -30.740419    -9.943141    1.592316    12.283194    -5.495961    31.498682    18.386143    46.097176    -0.895779    12.777665    34.137970    -19.799967    6.428468    37.095123    22.477140    11.878440    -1.061672    -12.511676    34.880608    -19.984657    6.979383    -32.803040    45.970776    0.000000    0.000000    0.000000    -10.611374    -10.033461    -5.319674    8.998398    20.921377    -8.724786    5.531053    5.535862    -13.841051    0.000000    0.000000    0.000000    
-2.750456    153.563660    -57.979469    -0.779238    -13.902057    29.002779    -3.140984    0.658256    0.524428    -1.188630    -0.794111    0.158748    2.362575    2.637615    -13.698915    11.518242    7.067770    -13.658835    2.250473    9.001484    -13.356212    -33.688602    21.588402    -51.495998    -0.989299    -30.052652    -115.715302    -8.004214    -30.801901    -10.052058    1.543147    12.287225    -5.498148    31.467909    18.433901    46.186138    -0.899953    12.614411    34.093491    -19.899960    6.248315    36.993454    22.430775    11.741129    -0.999400    -12.492773    34.562576    -19.939564    6.824851    -32.670841    45.894619    0.000000    0.000000    0.000000    -10.629219    -10.318236    -5.271737    9.015521    20.936672    -8.792045    5.491939    5.562498    -13.872910    0.000000    0.000000    0.000000    
-2.905535    153.625351    -57.945259    -0.852458    -13.647284    28.999496    -3.029334    0.760595    0.468778    -1.239115    -0.957526    0.137201    2.382150    2.644855    -13.672112    11.449576    6.929034    -13.624430    2.257282    8.998870    -13.346014    -33.672035    21.551800    -51.485458    -1.047696    -29.976257    -115.752113    -7.987123    -30.808247    -10.052006    1.540283    12.259429    -5.467617    31.460394    18.465382    46.179417    -0.884233    12.521913    34.175011    -19.873613    6.204261    36.760838    22.406990    11.496026    -0.961344    -12.503307    34.463482    -19.881132    6.628904    -32.564919    45.828648    0.000000    0.000000    0.000000    -10.633224    -10.598137    -5.254909    9.028419    20.953279    -8.844593    5.448397    5.594761    -13.912627    0.000000    0.000000    0.000000    
-3.060078    153.680237    -57.916214    -0.931107    -13.376825    28.986820    -2.908676    0.795175    0.432307    -1.311543    -1.034233    0.123704    2.407613    2.597834    -13.658859    11.381727    6.818851    -13.609100    2.293968    8.963603    -13.349490    -33.642082    21.569042    -51.525906    -1.042655    -30.030483    -115.757896    -7.965968    -30.859026    -10.014518    1.523370    12.267424    -5.475114    31.437939    18.520769    46.237400    -1.028864    12.452774    34.203289    -19.799923    6.184999    36.856419    22.380865    11.247759    -0.930578    -12.537143    34.340672    -19.790434    6.457575    -32.454395    45.756065    0.000000    0.000000    0.000000    -10.638483    -10.904714    -5.258571    9.021038    20.985296    -8.878083    5.423573    5.612933    -13.934896    0.000000    0.000000    0.000000    
-3.210798    153.734451    -57.884632    -0.999052    -13.111783    28.971666    -2.772815    0.852977    0.382481    -1.425990    -1.137671    0.104974    2.415789    2.599473    -13.652059    11.370037    6.679341    -13.589906    2.326557    8.924394    -13.355527    -33.622295    21.548653    -51.511421    -1.036222    -30.038164    -115.773216    -7.986041    -30.855875    -10.030690    1.516419    12.233644    -5.433273    31.433125    18.548187    46.243385    -1.069736    12.427657    34.261360    -19.864031    6.158860    36.813698    22.346083    11.015437    -0.900573    -12.570621    34.209358    -19.696045    6.273500    -32.354290    45.692150    0.000000    0.000000    0.000000    -10.651686    -11.197289    -5.243425    9.022215    21.007082    -8.910024    5.412437    5.630962    -13.968903    0.000000    0.000000    0.000000    
-3.366742    153.781479    -57.852028    -1.072242    -12.839400    28.950888    -2.686241    0.875301    0.359451    -1.458337    -1.193645    0.096493    2.427646    2.589851    -13.656827    11.322480    6.498297    -13.582417    2.344333    8.921814    -13.340042    -33.598656    21.519865    -51.589996    -0.991628    -30.080078    -115.730408    -8.140559    -30.816748    -10.139824    1.495137    12.214894    -5.446885    31.411436    18.551325    46.274521    -1.120249    12.421215    34.326836    -19.793674    6.157568    36.994526    22.315704    10.787978    -0.851197    -12.601315    34.061493    -19.608355    6.121194    -32.239182    45.622124    0.000000    0.000000    0.000000    -10.664271    -11.501440    -5.241303    9.021220    21.038008    -8.927278    5.375721    5.628351    -13.990986    0.000000    0.000000    0.000000    
-3.512654    153.817612    -57.812847    -1.145207    -12.598512    28.917805    -2.552633    0.947038    0.334695    -1.546918    -1.298465    0.085515    2.478718    2.616066    -13.657005    11.256476    6.294346    -13.573725    2.363208    8.924035    -13.370655    -33.556911    21.489902    -51.613197    -0.980835    -30.123159    -115.743210    -8.060461    -30.851458    -10.134945    1.503144    12.214998    -5.436757    31.349243    18.545025    46.329041    -1.074042    12.328807    34.388107    -19.817862    6.063636    36.880741    22.298729    10.530944    -0.764798    -12.620438    34.068432    -19.534208    5.933641    -32.172623    45.539135    0.000000    0.000000    0.000000    -10.673493    -11.774868    -5.218043    9.056858    21.060894    -9.006344    5.331294    5.623482    -13.983420    0.000000    0.000000    0.000000    
